<?xml version="1.0" encoding="UTF-8"?>
<svg width="600" height="245" version="1.1" xmlns="http://www.w3.org/2000/svg">
 <path d="m69.41 94.03 38.235-22.116 44.044 25.275 10.882-6.3922-54.927-31.446-97.646 56.795v-49.887l97.646-56.354 97.721 56.354v49.962l-48.529 28.36z" fill="#3d4647"/>
 <path d="m10 178.89v-50.109l48.456-28.361 87.499 50.623-38.309 22.115-43.971-25.275-10.955 6.318 54.926 31.447 97.721-56.721v49.962l-97.721 56.207z" fill="#6ebe4c"/>
 <path d="m541.69 163.75c7.0588 0 13.235-1.9838 18.676-5.9513 5.4412-3.9675 9.3382-9.0372 11.838-15.356h17.794c-3.3824 10.801-9.4853 19.544-18.456 26.156-9.3383 6.7595-20.515 10.066-33.382 10.066-16.103 0-29.191-5.5105-39.338-16.458-9.7794-10.654-14.706-24.099-14.706-40.19s4.9265-29.463 14.706-40.19c10.074-10.947 23.235-16.458 39.338-16.458 12.868 0 24.044 3.3798 33.382 10.066 8.897 6.6126 15.074 15.282 18.456 26.156h-17.794c-2.5-6.3187-6.4706-11.388-11.838-15.356-5.4412-3.9675-11.618-5.9513-18.676-5.9513s-13.015 1.1021-17.941 3.3063c-4.9265 2.2042-9.0441 5.2166-12.426 9.0372-7.2059 7.9351-10.735 17.707-10.735 29.389s3.6029 21.528 10.735 29.389c7.353 8.3025 17.426 12.343 30.368 12.343m-111.18 13.225v-95.295h-24.632v-14.474h24.632v-39.308h16.471v39.308h24.485v14.474h-24.485v95.295zm-126.76-92.209c8.8235-12.858 21.912-19.323 39.338-19.323 15.809 0 28.603 5.5105 38.456 16.458 9.7794 10.801 14.706 24.246 14.706 40.19s-4.9265 29.316-14.706 40.19c-9.7794 10.947-23.015 16.458-39.559 16.458s-29.265-6.5391-38.235-19.544v61.203h-16.471v-153.19h16.471zm37.132-4.4084c-11.838 0-21.25 4.1145-28.088 12.27-6.6177 7.7882-9.853 17.56-9.853 29.389s3.3088 21.675 9.853 29.389c6.9118 8.229 16.25 12.27 28.088 12.27 11.691 0 21.25-4.1145 28.529-12.27 6.9118-7.7882 10.294-17.56 10.294-29.389s-3.4559-21.675-10.294-29.389c-7.2794-8.1555-16.838-12.27-28.529-12.27" fill="#3d4647"/>
</svg>
